<svg width="100" height="21" viewBox="0 0 100 21" fill="none" xmlns="http://www.w3.org/2000/svg">
<path d="M36.707 20.291H32.7266L32.9492 18.8721C32.4483 19.5954 31.8363 20.0132 31.3076 20.2637C30.445 20.6811 29.4152 20.709 28.9141 20.709C27.411 20.709 26.1861 20.291 25.1562 19.2891C24.1543 18.2871 23.4581 16.7564 23.458 14.7803C23.458 12.7484 24.1542 10.6603 25.6016 9.21289C26.9097 7.9049 28.4961 7.45999 30.0547 7.45996C30.9732 7.45996 32.7274 7.68199 34.0635 9.37988L35.2041 0H39.2119L36.707 20.291ZM48.5801 1.30859C50.1666 1.30859 52.0038 1.61465 53.9521 3.14551L51.8096 6.2627C50.6405 5.20499 49.5264 4.92676 48.6914 4.92676C48.1626 4.92678 47.4116 5.01078 46.9385 5.40039C46.5488 5.70657 46.2979 6.23531 46.2979 6.73633C46.298 7.29283 46.5489 7.68217 46.9385 7.98828C47.3281 8.32223 47.8287 8.54545 48.7471 8.96289L49.833 9.46387C50.7236 9.88136 51.5586 10.3545 52.2822 11.2451C52.9502 12.0801 53.2285 12.9429 53.2285 14.1396C53.2285 16.0881 52.4488 17.8139 51.3633 18.8994C49.8604 20.3744 47.9404 20.7089 46.0479 20.709C44.6841 20.709 43.5981 20.5419 42.3457 19.874C41.4272 19.373 40.5362 18.6212 39.8682 17.8975L42.2617 14.8359C42.6513 15.3647 43.2637 15.9487 43.8203 16.3105C44.4048 16.6724 45.185 16.9238 45.9922 16.9238C46.6323 16.9237 47.523 16.7285 48.0518 16.3389C48.5526 15.9492 48.831 15.309 48.8311 14.6133C48.8311 13.9453 48.5244 13.5557 48.3018 13.333C48.1626 13.1939 47.801 12.8876 46.8271 12.498L45.7412 12.0527C45.435 11.9414 44.0157 11.3286 43.125 10.4102C42.2343 9.49162 41.9004 8.43369 41.9004 7.26465C41.9004 5.34418 42.6796 3.95219 43.5703 3.06152C45.0733 1.5866 46.9937 1.30862 48.5801 1.30859ZM70.3926 7.45996C71.1161 7.45999 72.0065 7.54314 72.8135 7.93262C73.2866 8.15527 73.9551 8.60065 74.5117 9.37988L74.623 7.87695H78.6309L77.1006 20.291H73.0918L73.3984 18.8721C72.9531 19.4009 72.3125 19.9575 71.6445 20.2637C70.7817 20.6533 69.8071 20.709 69.334 20.709C67.8033 20.7089 66.5786 20.3188 65.4932 19.1777C64.5747 18.2036 63.8233 16.7563 63.8232 14.6133C63.8232 12.3309 64.6303 10.4933 65.8271 9.26855C67.1075 7.96042 68.6669 7.45996 70.3926 7.45996ZM5.00977 12.4424L9.5752 7.87695H14.9189L8.82324 13.583L14.4463 20.291H9.29688L4.73145 14.8359L4.00781 20.291H0L2.5332 0H6.54102L5.00977 12.4424ZM19.9131 20.291H15.9053L17.4355 7.87695H21.4443L19.9131 20.291ZM61.0732 7.87695H63.5225L63.1328 11.1064H60.6836L59.542 20.291H55.5342L56.6748 11.1064H55.2275L55.6172 7.87695H57.0645L57.5654 3.86914H61.5742L61.0732 7.87695ZM89.1709 7.57129C89.8389 7.57129 90.396 7.65429 90.8135 7.76562L90.0342 11.4951C89.6445 11.3003 89.0596 11.0781 88.2803 11.0781C87.2785 11.0781 86.6104 11.4673 86.2207 11.8291C85.5248 12.4971 85.1904 13.6669 85.0234 15.0029L84.3555 20.291H80.3477L81.8779 7.87695H85.8867L85.5244 9.71387C85.914 8.93477 86.4987 8.40627 87.083 8.07227C87.8623 7.65477 88.7255 7.5713 89.1709 7.57129ZM97.5508 7.87695H100L99.6104 11.1064H97.1611L96.0195 20.291H92.0117L93.1523 11.1064H91.7051L92.0947 7.87695H93.542L94.043 3.86914H98.0518L97.5508 7.87695ZM71.2549 10.9111C70.2529 10.9112 69.501 11.2177 68.8887 11.8301C68.3323 12.3867 67.9425 13.2771 67.9424 14.3066C67.9424 15.3363 68.3604 16.0043 68.75 16.4219C69.3345 17.0342 70.0581 17.2578 70.8652 17.2578C72.0064 17.2578 72.7299 16.8116 73.1475 16.4219C73.8711 15.726 74.2051 14.6685 74.2051 13.75C74.205 12.8596 73.8714 12.0806 73.3428 11.6074C72.9809 11.2734 72.3404 10.9111 71.2549 10.9111ZM30.8623 10.9111C29.6937 10.9111 28.9699 11.4395 28.5801 11.8291C27.9678 12.4414 27.5772 13.3325 27.5771 14.3623C27.5771 15.4478 28.0229 16.1162 28.4404 16.5059C28.8301 16.8955 29.4981 17.2568 30.5 17.2568C31.5577 17.2568 32.3374 16.8116 32.8105 16.3105C33.4228 15.6703 33.7842 14.6128 33.7842 13.75C33.7841 12.7759 33.3394 12.1079 32.9775 11.7461C32.5879 11.3564 31.892 10.9112 30.8623 10.9111ZM19.9688 0.250977C21.277 0.250977 22.3066 1.28065 22.3066 2.58887C22.3065 3.89694 21.2769 4.92676 19.9688 4.92676C18.6606 4.92675 17.631 3.89694 17.6309 2.58887C17.6309 1.28066 18.6605 0.250981 19.9688 0.250977Z" fill="#9747FF"/>
</svg>
