
<svg width="136" height="28" viewBox="0 0 136 28" fill="none" xmlns="http://www.w3.org/2000/svg">
<g clip-path="url(#clip0_83_53)">
<path d="M25.2801 15.3796C25.2434 16.185 25.5049 17.2138 25.9522 17.8364C26.661 18.7885 27.6657 18.9735 28.5236 18.9735C29.1567 18.9735 29.9778 18.9374 30.6476 18.4975C31.1316 18.1681 31.5789 17.5431 31.8037 17.031L37.2079 17.471C36.5358 19.1201 35.3821 20.661 34.1893 21.5409C32.2877 22.9351 30.0145 23.0818 28.4869 23.0818C26.4362 23.0818 23.9772 22.8246 22 20.8821C20.3966 19.3051 19.9126 17.3627 19.9126 15.163C19.9126 11.5691 21.4036 9.18669 22.7822 7.90299C24.7961 6.03271 27.2918 5.63113 29.3792 5.63113C32.212 5.63113 34.3384 6.511 35.6046 7.72025C37.841 9.88381 37.9167 13.4394 37.6919 15.3841H25.2801V15.3796ZM32.5492 12.1512C32.4735 11.3818 32.0652 10.502 31.4688 10.0259C30.8724 9.54992 29.9411 9.36492 29.269 9.36492C27.9639 9.36492 27.1817 9.9154 26.7344 10.3553C26.3238 10.7953 25.9522 11.4179 25.8031 12.1512H32.5515H32.5492Z" fill="#007BE5"/>
<path d="M43.4884 15.3796C43.4517 16.185 43.7132 17.2138 44.1605 17.8364C44.8692 18.7885 45.8739 18.9735 46.7318 18.9735C47.3649 18.9735 48.1861 18.9374 48.8559 18.4975C49.3399 18.1681 49.7872 17.5431 50.012 17.031L55.4162 17.471C54.7441 19.1201 53.5903 20.661 52.3975 21.5409C50.496 22.9351 48.2228 23.0818 46.6951 23.0818C44.6444 23.0818 42.1855 22.8246 40.2082 20.8821C38.6048 19.3051 38.1208 17.3627 38.1208 15.163C38.1208 11.5691 39.6118 9.18669 40.9904 7.90299C43.0044 6.03271 45.5 5.63113 47.5874 5.63113C50.4203 5.63113 52.5466 6.511 53.8128 7.72025C56.0493 9.88381 56.125 13.4394 55.9002 15.3841H43.4884V15.3796ZM50.7574 12.1512C50.6818 11.3818 50.2735 10.502 49.6771 10.0259C49.0807 9.54992 48.1494 9.36492 47.4773 9.36492C46.1721 9.36492 45.3899 9.9154 44.9426 10.3553C44.532 10.7953 44.1604 11.4179 44.0114 12.1512H50.7597H50.7574Z" fill="#007BE5"/>
<path d="M97.7668 6.1771H103.134L101.084 22.529H95.7161L96.1267 20.6588C95.5303 21.3559 94.6724 22.0891 93.7778 22.4929C92.6217 23.0051 91.3166 23.0795 90.6835 23.0795C88.6328 23.0795 86.9927 22.5651 85.5385 21.0626C84.309 19.7789 83.302 17.8725 83.302 15.0502C83.302 12.0429 84.3824 9.62436 85.9858 8.01128C87.6992 6.28765 89.7866 5.62888 92.0988 5.62888C93.0668 5.62888 94.2595 5.73942 95.3422 6.25155C95.9753 6.54484 96.8699 7.13142 97.6154 8.15792L97.7645 6.17936L97.7668 6.1771ZM90.0871 11.3818C89.3416 12.1151 88.8186 13.2882 88.8186 14.6441C88.8186 16 89.3783 16.8799 89.899 17.4303C90.6812 18.238 91.6515 18.529 92.7318 18.529C94.2595 18.529 95.2298 17.9425 95.7895 17.4303C96.7575 16.5144 97.2048 15.1201 97.2048 13.9109C97.2048 12.7016 96.7575 11.7112 96.0487 11.0886C95.5647 10.6486 94.7068 10.1726 93.2525 10.1726C91.9107 10.1726 90.9037 10.5764 90.0848 11.3818H90.0871Z" fill="#007BE5"/>
<path d="M133.727 10.5381C132.981 9.98759 131.901 9.43937 130.596 9.43937C130.075 9.43937 129.366 9.54992 128.992 9.8793C128.768 10.062 128.621 10.3914 128.621 10.687C128.621 10.9825 128.733 11.3096 129.142 11.5668C129.254 11.6413 129.513 11.7496 130.447 12.0068L131.676 12.3362C132.495 12.5572 133.615 12.9227 134.546 13.877C135.404 14.7208 135.775 15.7112 135.775 16.9927C135.775 19.0096 134.917 20.3294 134.209 21.0265C132.419 22.8607 129.811 23.0795 128.357 23.0795C126.903 23.0795 125.524 22.9329 124.033 22.2719C123.102 21.868 122.244 21.2814 121.462 20.5866L123.735 17.031C124.331 17.5815 125.114 18.0936 125.786 18.3869C125.972 18.4591 126.942 18.899 128.098 18.899C128.768 18.899 129.291 18.7885 129.738 18.5313C130.185 18.2741 130.41 17.9808 130.41 17.4687C130.41 16.9182 130.149 16.6249 129.887 16.4422C129.552 16.2233 129.029 16.1128 128.582 15.9662L127.389 15.5984C126.495 15.3412 125.377 14.9013 124.593 14.132C124.182 13.692 123.476 12.7761 123.476 11.1991C123.476 9.62211 124.148 8.26622 125.043 7.38635C126.756 5.73717 129.33 5.62662 130.522 5.62662C131.715 5.62662 133.729 5.73717 136.002 7.2758L133.729 10.5381H133.727Z" fill="#007BE5"/>
<path d="M78.7396 0L75.9114 22.5268H81.2789L84.1072 0H78.7396Z" fill="#007BE5"/>
<path d="M15.2103 0L14.201 8.15567C12.4118 5.91991 10.0629 5.62662 8.83346 5.62662C6.7461 5.62662 4.62203 6.2132 2.86956 7.93683C0.931287 9.8432 0 12.5911 0 15.269C0 17.947 0.931287 19.8895 2.27317 21.2093C3.65175 22.529 5.29182 23.0795 7.30579 23.0795C7.97787 23.0795 9.35645 23.0434 10.5125 22.493C11.2213 22.1636 12.0402 21.6131 12.7123 20.6588L12.4141 22.529H17.7449L20.5709 0H15.2103ZM12.5242 17.2837C11.8911 17.9447 10.8474 18.5313 9.42985 18.5313C8.08797 18.5313 7.19339 18.0553 6.67269 17.5409C6.113 17.0288 5.51661 16.1489 5.51661 14.7186C5.51661 13.3627 6.03731 12.1895 6.85849 11.3818C7.37919 10.8697 8.34947 10.1726 9.91614 10.1726C11.2947 10.1726 12.226 10.7592 12.749 11.2713C13.233 11.7473 13.8294 12.6272 13.8294 13.9109C13.8294 15.0479 13.3454 16.4399 12.5242 17.2837Z" fill="#007BE5"/>
<path d="M60.6529 28L61.6186 20.5121C62.2907 21.4281 63.0729 22.0147 63.7794 22.3824C64.9354 22.969 66.2016 23.0795 67.3944 23.0795C69.5552 23.0795 71.3834 22.493 73.0234 20.8799C74.6635 19.2668 75.8196 16.6633 75.8196 13.5477C75.8196 11.0186 74.9617 8.7445 73.6198 7.4247C72.7252 6.58094 71.1586 5.62888 68.5872 5.62888C67.3187 5.62888 66.2383 5.84997 65.158 6.3982C64.5249 6.72758 63.7427 7.27806 63.0706 8.08347L63.3688 6.1771H58.0013L55.2739 28H60.6529ZM63.3711 11.4179C64.1923 10.6125 65.1969 10.1726 66.5021 10.1726C67.4334 10.1726 68.4771 10.502 69.1492 11.1246C69.8213 11.7112 70.3053 12.8483 70.3053 13.8748C70.3053 15.084 69.7089 16.5866 68.8143 17.3942C68.0321 18.1275 66.9127 18.5313 65.8323 18.5313C64.6763 18.5313 63.6716 18.0553 63.0362 17.3942C62.215 16.5505 62.0292 15.4879 62.0292 14.7186C62.0292 13.471 62.4008 12.3723 63.3711 11.4179Z" fill="#007BE5"/>
<path d="M104.547 28H110.571L124.74 6.1771H118.441L112.849 15.1224L109.158 6.1771H103.045L109.493 20.4377L104.547 28Z" fill="#007BE5"/>
</g>
<defs>
<clipPath id="clip0_83_53">
<rect width="136" height="28" fill="white"/>
</clipPath>
</defs>
</svg>
